<svg xmlns="http://www.w3.org/2000/svg" viewBox="0 0 24 24">
  <g fill="none" stroke="#000" stroke-linecap="round" stroke-linejoin="round">
    <path stroke-width="1.71429" d="M9.42857143 21.42857143a4.66285714 4.66285714 0 0 0 0-6.85714286 4.66285714 4.66285714 0 0 0-6.85714286 0C.85714286 16.2857143.85714286 23.14285714.85714286 23.14285714s6.85714285 0 8.57142857-1.71428571Z"/>
    <path stroke-width="1.71429" d="M22.14857143 1.85142857a3.42857143 3.42857143 0 0 0-4.52571429-.25714286L7.71428571 8.57142857l-1.21714285 4.52571429a4.92 4.92 0 0 1 2.93142857 1.47428571 4.92 4.92 0 0 1 1.47428571 2.93142857l4.52571429-1.21714285 6.97714286-9.90857143a3.42857143 3.42857143 0 0 0-.25714286-4.52571429ZM.85714286 23.14285714l5.57142857-5.57142857"/>
  </g>
</svg>
