<svg width="36" height="36" viewBox="0 0 36 36" fill="none" xmlns="http://www.w3.org/2000/svg">
<path fill-rule="evenodd" clip-rule="evenodd" d="M18.0003 12C14.4003 12 11.5503 14.8499 11.5503 18.45C11.5503 22.05 14.4003 24.9 18.0003 24.9C21.6003 24.9 24.4503 22.05 24.4503 18.45C24.4503 14.8499 21.6003 12 18.0003 12ZM18.0003 22.65C15.7503 22.65 13.8003 20.8499 13.8003 18.45C13.8003 16.2 15.6003 14.25 18.0003 14.25C20.2503 14.25 22.2003 16.05 22.2003 18.45C22.2003 20.7 20.2503 22.65 18.0003 22.65Z" fill="white"/>
<path d="M26.1003 11.8499C26.1003 12.6784 25.4287 13.3499 24.6003 13.3499C23.7719 13.3499 23.1003 12.6784 23.1003 11.8499C23.1003 11.0216 23.7719 10.3499 24.6003 10.3499C25.4287 10.3499 26.1003 11.0216 26.1003 11.8499Z" fill="white"/>
<path fill-rule="evenodd" clip-rule="evenodd" d="M26.1003 6.59995C25.3503 6.30002 24.4503 6.14996 23.1003 6H12.9003C11.5503 6 10.6503 6.30002 9.90028 6.59995C9.15028 6.89996 8.40028 7.34995 7.65028 8.09995C6.90028 8.84995 6.60027 9.44998 6.15028 10.3499C5.85027 11.0999 5.70026 12 5.55029 13.3499V23.55C5.55029 24.9 5.85027 25.8 6.15028 26.55C6.45026 27.3 6.90028 28.05 7.65028 28.8C8.39978 29.5496 8.99945 29.8496 9.8985 30.2992L9.90028 30.3C10.6503 30.5999 11.5503 30.75 12.9003 30.9H23.1003C24.4503 30.9 25.3503 30.5999 26.1003 30.3C26.8503 30 27.6003 29.55 28.3503 28.8C29.1003 28.05 29.4003 27.45 29.8503 26.55C30.1503 25.8 30.3003 24.9 30.4503 23.55V13.3499C30.4503 12 30.1503 11.0999 29.8503 10.3499C29.5503 9.59995 29.1003 8.84995 28.3503 8.09995C27.6008 7.3504 27.0011 7.05038 26.1021 6.60077L26.1003 6.59995ZM25.129 8.62125C24.7003 8.46432 24.1146 8.25 23.1003 8.25H12.9003C11.7003 8.39996 11.1003 8.55002 10.6503 8.69998C10.0503 8.84995 9.60027 9.14996 9.15028 9.59995C8.79419 9.95609 8.62596 10.3121 8.42262 10.7425L8.42111 10.7455C8.36801 10.8582 8.3123 10.976 8.25027 11.0999C8.22707 11.1696 8.20029 11.2428 8.17154 11.3212C8.01462 11.75 7.80029 12.3356 7.80029 13.3499V23.55C7.95026 24.75 8.10027 25.3499 8.25027 25.8C8.40028 26.4 8.70026 26.8499 9.15028 27.3C9.50638 27.6561 9.86243 27.8243 10.2928 28.0277C10.4063 28.0813 10.525 28.1374 10.6503 28.2C10.7199 28.2231 10.7931 28.25 10.8716 28.2787C11.3003 28.4356 11.8859 28.65 12.9003 28.65H23.1003C24.3003 28.5 24.9003 28.3499 25.3503 28.2C25.9503 28.05 26.4003 27.75 26.8503 27.3C27.2064 26.9439 27.3746 26.5878 27.5779 26.1574C27.6088 26.0922 27.6404 26.0252 27.6736 25.9563C27.6982 25.9053 27.7236 25.8532 27.7503 25.8C27.7735 25.7303 27.8003 25.6572 27.829 25.5787C27.9859 25.15 28.2003 24.5643 28.2003 23.55V13.3499C28.0503 12.15 27.9003 11.55 27.7503 11.0999C27.6003 10.5 27.3003 10.05 26.8503 9.59995C26.4942 9.2439 26.1381 9.07562 25.7077 8.87228L25.582 8.81277C25.5072 8.77707 25.4299 8.73981 25.3503 8.69998C25.2806 8.67673 25.2074 8.64999 25.129 8.62125Z" fill="white"/>
</svg>
