<svg width="32" height="32" viewBox="0 0 24 24" fill="none" xmlns="http://www.w3.org/2000/svg">
<path fill-rule="evenodd" clip-rule="evenodd" d="M11.9992 8C9.59921 8 7.69922 9.89996 7.69922 12.3C7.69922 14.7 9.59921 16.6 11.9992 16.6C14.3992 16.6 16.2992 14.7 16.2992 12.3C16.2992 9.89996 14.3992 8 11.9992 8ZM11.9992 15.1C10.4992 15.1 9.19922 13.9 9.19922 12.3C9.19922 10.8 10.3992 9.5 11.9992 9.5C13.4992 9.5 14.7992 10.7 14.7992 12.3C14.7992 13.8 13.4992 15.1 11.9992 15.1Z" fill="white"/>
<path d="M17.3992 7.89996C17.3992 8.45227 16.9515 8.89996 16.3992 8.89996C15.8469 8.89996 15.3992 8.45227 15.3992 7.89996C15.3992 7.34772 15.8469 6.89996 16.3992 6.89996C16.9515 6.89996 17.3992 7.34772 17.3992 7.89996Z" fill="white"/>
<path fill-rule="evenodd" clip-rule="evenodd" d="M17.3992 4.39996C16.8992 4.20001 16.2992 4.09998 15.3992 4H8.59921C7.69922 4 7.09921 4.20001 6.59921 4.39996C6.09921 4.59998 5.59921 4.89996 5.09921 5.39996C4.59921 5.89996 4.3992 6.29999 4.09921 6.89996C3.8992 7.39996 3.79919 8 3.69922 8.89996V15.7C3.69922 16.6 3.8992 17.2 4.09921 17.7C4.29919 18.2 4.59921 18.7 5.09921 19.2C5.59888 19.6997 5.99866 19.8997 6.59802 20.1995L6.59921 20.2C7.09921 20.4 7.69922 20.5 8.59921 20.6H15.3992C16.2992 20.6 16.8992 20.4 17.3992 20.2C17.8992 20 18.3992 19.7 18.8992 19.2C19.3992 18.7 19.5992 18.3 19.8992 17.7C20.0992 17.2 20.1992 16.6 20.2992 15.7V8.89996C20.2992 8 20.0992 7.39996 19.8992 6.89996C19.6992 6.39996 19.3992 5.89996 18.8992 5.39996C18.3995 4.90027 17.9998 4.70026 17.4004 4.40051L17.3992 4.39996ZM16.7517 5.7475C16.4659 5.64288 16.0754 5.5 15.3992 5.5H8.59921C7.79919 5.59998 7.3992 5.70001 7.09921 5.79999C6.69922 5.89996 6.3992 6.09998 6.09921 6.39996C5.86182 6.63739 5.74966 6.87476 5.61411 7.16168L5.6131 7.1637C5.5777 7.23877 5.54056 7.31732 5.49921 7.39996C5.48373 7.44641 5.46588 7.49518 5.44672 7.54749C5.3421 7.83331 5.19922 8.22375 5.19922 8.89996V15.7C5.29919 16.5 5.3992 16.9 5.49921 17.2C5.59921 17.6 5.79919 17.9 6.09921 18.2C6.33661 18.4374 6.57397 18.5496 6.8609 18.6851C6.93658 18.7209 7.01572 18.7582 7.09921 18.8C7.14563 18.8154 7.19443 18.8333 7.24673 18.8525C7.53253 18.9571 7.92297 19.1 8.59921 19.1H15.3992C16.1992 19 16.5992 18.9 16.8992 18.8C17.2992 18.7 17.5992 18.5 17.8992 18.2C18.1366 17.9626 18.2487 17.7252 18.3843 17.4383C18.4049 17.3948 18.426 17.3502 18.4481 17.3042C18.4645 17.2702 18.4814 17.2355 18.4992 17.2C18.5147 17.1536 18.5325 17.1048 18.5517 17.0525C18.6563 16.7667 18.7992 16.3762 18.7992 15.7V8.89996C18.6992 8.09998 18.5992 7.70001 18.4992 7.39996C18.3992 7 18.1992 6.70001 17.8992 6.39996C17.6618 6.1626 17.4244 6.05042 17.1375 5.91486L17.0537 5.87518C17.0038 5.85138 16.9523 5.82654 16.8992 5.79999C16.8528 5.78448 16.804 5.76666 16.7517 5.7475Z" fill="white"/>
</svg>
