<svg width="32" height="32" viewBox="0 0 24 24" fill="none" xmlns="http://www.w3.org/2000/svg">
<path d="M4.20001 20.2998V9.59979H7.60001V20.2998H4.20001Z" fill="white"/>
<path d="M5.89999 8.09979C4.79999 8.09979 4 7.2998 4 6.19983C4 5.09979 4.89999 4.2998 5.89999 4.2998C7 4.2998 7.79999 5.09979 7.79999 6.19983C7.79999 7.2998 7 8.09979 5.89999 8.09979Z" fill="white"/>
<path d="M19.8 20.2998H16.6V14.4998C16.6 12.7998 15.9 12.2998 14.9 12.2998C13.9 12.2998 12.9 13.0998 12.9 14.5998V20.2998H9.5V9.59979H12.7V11.0998C13 10.3998 14.2 9.2998 15.9 9.2998C17.8 9.2998 19.8 10.3998 19.8 13.6998V20.2998Z" fill="white"/>
</svg>
