<svg width="36" height="36" viewBox="0 0 36 36" fill="none" xmlns="http://www.w3.org/2000/svg">
<path d="M6.30002 30.45V14.4H11.4V30.45H6.30002Z" fill="white"/>
<path d="M8.84999 12.15C7.19998 12.15 6 10.95 6 9.30002C6 7.64996 7.34999 6.44998 8.84999 6.44998C10.5 6.44998 11.7 7.64996 11.7 9.30002C11.7 10.95 10.5 12.15 8.84999 12.15Z" fill="white"/>
<path d="M29.7 30.45H24.9V21.75C24.9 19.2 23.85 18.45 22.35 18.45C20.85 18.45 19.35 19.65 19.35 21.9V30.45H14.25V14.4H19.05V16.65C19.5 15.5999 21.3 13.95 23.85 13.95C26.7 13.95 29.7 15.5999 29.7 20.55V30.45Z" fill="white"/>
</svg>
