<svg width="209" height="18" viewBox="0 0 209 18" fill="none" xmlns="http://www.w3.org/2000/svg">
<path d="M23.4341 0.554688V17.4452H18.5202V6.65999L11.7658 14.9111H11.5248L4.77039 6.65999V17.4452H0V0.554688H5.39841L11.7658 8.66274L18.1818 0.554688H23.4367H23.4341Z" fill="white"/>
<path d="M27.3984 8.99958C27.3984 3.28 31.733 0 38.4388 0C45.1445 0 49.5022 3.28256 49.5022 8.99958C49.5022 14.7166 45.1445 17.9992 38.4388 17.9992C31.733 17.9992 27.3984 14.7166 27.3984 8.99958ZM44.4678 8.99958C44.4678 5.81409 42.1684 4.00549 38.4388 4.00549C34.7091 4.00549 32.4098 5.81409 32.4098 8.99958C32.4098 12.1851 34.7091 13.9937 38.4388 13.9937C42.1684 13.9937 44.4678 12.1851 44.4678 8.99958Z" fill="white"/>
<path d="M67.8641 17.4452L63.3861 12.1139H58.3981V17.4452H53.4844V0.554688H65.3726C69.707 0.554688 73.0726 2.46036 73.0726 6.32024C73.0726 9.14299 71.2809 10.9286 68.6177 11.7001L73.6057 17.4426H67.8692L67.8641 17.4452ZM65.0061 8.54267C66.7747 8.54267 68.0563 8.05987 68.0563 6.41987C68.0563 4.77986 66.7721 4.29706 65.0061 4.29706H58.3724V8.54267H65.0061Z" fill="white"/>
<path d="M94.1747 4.48865H87.1284V17.4452H82.189V4.48865H75.1914V0.554688H94.1721V4.48865H94.1747Z" fill="white"/>
<path d="M115.571 13.6798V17.4426H97.4844V0.554688H115.304V4.3175H102.352V7.09171H113.028V10.6859H102.352V13.6773H115.571V13.6798Z" fill="white"/>
<path d="M139.567 0.554688V17.4452H135.232L124.29 6.34579V17.4452H119.52V0.554688H124.749L134.796 10.8826V0.554688H139.567Z" fill="white"/>
<path d="M163.173 12.1595C163.173 15.6337 159.954 17.9992 153.805 17.9992C149.447 17.9992 145.792 16.8164 143.129 14.6936L145.72 11.6537C147.73 13.3423 150.514 14.2823 153.902 14.2823C156.806 14.2823 158.26 13.751 158.26 12.6423C158.26 11.5337 156.904 11.1939 153.418 10.9052C148.381 10.471 143.806 9.36232 143.806 5.59696C143.806 1.83159 147.727 0 153.102 0C156.735 0 160.074 0.868536 162.399 2.50854L159.905 5.57396C158.016 4.24817 155.74 3.71683 153.102 3.69128C151.116 3.69128 148.719 4.00549 148.719 5.21122C148.719 6.34543 150.68 6.49104 153.707 6.73116C159.252 7.18842 163.173 8.27409 163.173 12.1595Z" fill="white"/>
<path d="M185.008 13.6798V17.4426H166.922V0.554688H184.741V4.3175H171.789V7.09171H182.465V10.6859H171.789V13.6773H185.008V13.6798Z" fill="white"/>
<path d="M209 0.554688V17.4452H204.666L193.723 6.34579V17.4452H188.953V0.554688H194.182L204.23 10.8826V0.554688H209Z" fill="white"/>
</svg>
