<svg width="408" height="68" viewBox="0 0 408 68" fill="none" xmlns="http://www.w3.org/2000/svg">
<path d="M25.0117 21.6377L0 33.9999L25.0117 46.3658L50.0234 33.9999L25.0117 21.6377Z" fill="#F0AF13"/>
<path d="M75.0351 0L62.5274 6.18108L50.0234 0L25.0117 12.3622L50.0234 24.7281V12.3622L75.0351 24.7281L100.047 12.3622L75.0351 0Z" fill="#F0AF13"/>
<path d="M50.0234 43.2715L25.0117 55.6374L50.0234 67.9995L75.0351 55.6374L50.0234 43.2715Z" fill="#F0AF13"/>
<path d="M134.982 21.4258V46.3953H127.752V30.4514L117.815 42.6491H117.46L107.522 30.4514V46.3953H100.504V21.4258H108.446L117.815 33.412L127.254 21.4258H134.986H134.982Z" fill="#F5F5F5"/>
<path d="M140.82 33.9116C140.82 25.4563 147.198 20.6074 157.064 20.6074C166.93 20.6074 173.341 25.4601 173.341 33.9116C173.341 42.3632 166.93 47.2159 157.064 47.2159C147.198 47.2159 140.82 42.3632 140.82 33.9116V33.9116ZM165.934 33.9116C165.934 29.2025 162.551 26.5288 157.064 26.5288C151.576 26.5288 148.193 29.2025 148.193 33.9116C148.193 38.6208 151.576 41.2945 157.064 41.2945C162.551 41.2945 165.934 38.6208 165.934 33.9116Z" fill="#F5F5F5"/>
<path d="M200.349 46.3953L193.76 38.5139H186.421V46.3953H179.191V21.4258H196.683C203.061 21.4258 208.012 24.243 208.012 29.9491C208.012 34.122 205.376 36.7617 201.458 37.9022L208.797 46.3915H200.356L200.349 46.3953ZM196.144 33.2346C198.746 33.2346 200.632 32.5208 200.632 30.0964C200.632 27.6719 198.742 26.9582 196.144 26.9582H186.383V33.2346H196.144Z" fill="#F5F5F5"/>
<path d="M239.064 27.2414H228.696V46.3953H221.429V27.2414H211.133V21.4258H239.06V27.2414H239.064Z" fill="#F5F5F5"/>
<path d="M270.545 40.8289V46.3915H243.934V21.4258H270.152V26.9884H251.095V31.0896H266.803V36.4029H251.095V40.8251H270.545V40.8289Z" fill="#F5F5F5"/>
<path d="M305.848 21.4258V46.3953H299.47L283.37 29.9869V46.3953H276.352V21.4258H284.045L298.829 36.6937V21.4258H305.848V21.4258Z" fill="#F5F5F5"/>
<path d="M340.578 38.583C340.578 43.7189 335.841 47.2159 326.794 47.2159C320.382 47.2159 315.004 45.4674 311.086 42.3292L314.899 37.8353C317.856 40.3315 321.951 41.7212 326.937 41.7212C331.21 41.7212 333.348 40.9357 333.348 39.2968C333.348 37.6578 331.353 37.1556 326.224 36.7288C318.814 36.0868 312.082 34.4479 312.082 28.8815C312.082 23.3151 317.852 20.6074 325.76 20.6074C331.104 20.6074 336.019 21.8914 339.439 24.3158L335.77 28.8475C332.99 26.8876 329.641 26.1021 325.76 26.0643C322.838 26.0643 319.311 26.5288 319.311 28.3113C319.311 29.988 322.196 30.2032 326.65 30.5582C334.808 31.2342 340.578 32.8391 340.578 38.583Z" fill="#F5F5F5"/>
<path d="M372.709 40.8289V46.3915H346.098V21.4258H372.316V26.9884H353.26V31.0896H368.967V36.4029H353.26V40.8251H372.709V40.8289Z" fill="#F5F5F5"/>
<path d="M408 21.4258V46.3953H401.623L385.522 29.9869V46.3953H378.504V21.4258H386.198L400.981 36.6937V21.4258H408V21.4258Z" fill="#F5F5F5"/>
</svg>
