<svg width="259" height="105" viewBox="0 0 259 105" fill="none" xmlns="http://www.w3.org/2000/svg">
<path d="M108.027 18.127L87 28.4832L108.027 38.8426L129.054 28.4832L108.027 18.127Z" fill="#F0AF13"/>
<path d="M150.085 0L139.57 5.17813L129.058 0L108.031 10.3563L129.058 20.7157V10.3563L150.085 20.7157L171.112 10.3563L150.085 0Z" fill="#F0AF13"/>
<path d="M129.058 36.25L108.031 46.6094L129.058 56.9657L150.085 46.6094L129.058 36.25Z" fill="#F0AF13"/>
<path d="M28.9852 83.3945V104.312H22.9073V90.9556L14.5529 101.174H14.2548L5.90041 90.9556V104.312H0V83.3945H6.6772L14.5529 93.4359L22.4888 83.3945H28.9884H28.9852Z" fill="#F5F5F5"/>
<path d="M33.8906 93.8545C33.8906 86.7711 39.252 82.709 47.5462 82.709C55.8404 82.709 61.2303 86.7743 61.2303 93.8545C61.2303 100.935 55.8404 105 47.5462 105C39.252 105 33.8906 100.935 33.8906 93.8545ZM55.0034 93.8545C55.0034 89.9094 52.1594 87.6696 47.5462 87.6696C42.933 87.6696 40.0891 89.9094 40.0891 93.8545C40.0891 97.7995 42.933 100.039 47.5462 100.039C52.1594 100.039 55.0034 97.7995 55.0034 93.8545Z" fill="#F5F5F5"/>
<path d="M83.9353 104.312L78.3963 97.71H72.2264V104.312H66.1484V83.3945H80.8535C86.2149 83.3945 90.3778 85.7546 90.3778 90.5348C90.3778 94.0307 88.1616 96.242 84.8674 97.1975L91.0373 104.309H83.9416L83.9353 104.312ZM80.4001 93.2872C82.5878 93.2872 84.1731 92.6893 84.1731 90.6582C84.1731 88.6272 82.5846 88.0292 80.4001 88.0292H72.1947V93.2872H80.4001Z" fill="#F5F5F5"/>
<path d="M116.481 88.2665H107.765V104.312H101.656V88.2665H93V83.3945H116.478V88.2665H116.481Z" fill="#F5F5F5"/>
<path d="M142.95 99.6493V104.309H120.578V83.3945H142.62V88.0546H126.599V91.4903H139.804V95.9415H126.599V99.6461H142.95V99.6493Z" fill="#F5F5F5"/>
<path d="M172.625 83.3945V104.312H167.264L153.729 90.5665V104.312H147.828V83.3945H154.296L166.725 96.1851V83.3945H172.625Z" fill="#F5F5F5"/>
<path d="M201.825 97.7679C201.825 102.07 197.843 105 190.237 105C184.847 105 180.325 103.535 177.031 100.906L180.237 97.1415C182.722 99.2326 186.166 100.397 190.357 100.397C193.949 100.397 195.747 99.7388 195.747 98.3658C195.747 96.9928 194.07 96.572 189.758 96.2145C183.528 95.6767 177.868 94.3037 177.868 89.6405C177.868 84.9773 182.719 82.709 189.368 82.709C193.861 82.709 197.992 83.7846 200.868 85.8157L197.783 89.612C195.446 87.9701 192.63 87.3121 189.368 87.2804C186.911 87.2804 183.946 87.6696 183.946 89.1628C183.946 90.5674 186.372 90.7478 190.116 91.0452C196.974 91.6114 201.825 92.956 201.825 97.7679Z" fill="#F5F5F5"/>
<path d="M228.84 99.6493V104.309H206.469V83.3945H228.51V88.0546H212.49V91.4903H225.695V95.9415H212.49V99.6461H228.84V99.6493Z" fill="#F5F5F5"/>
<path d="M258.508 83.3945V104.312H253.146L239.611 90.5665V104.312H233.711V83.3945H240.179L252.607 96.1851V83.3945H258.508Z" fill="#F5F5F5"/>
</svg>
