<svg width="199" height="33" viewBox="0 0 199 33" fill="none" xmlns="http://www.w3.org/2000/svg">
<path d="M12.1945 10.5L0 16.4988L12.1945 22.4993L24.3889 16.4988L12.1945 10.5Z" fill="#F0AF13"/>
<path d="M36.5842 0L30.4861 2.99938L24.3898 0L12.1953 5.99876L24.3898 11.9993V5.99876L36.5842 11.9993L48.7787 5.99876L36.5842 0Z" fill="#F0AF13"/>
<path d="M24.3898 20.998L12.1953 26.9986L24.3898 32.9974L36.5842 26.9986L24.3898 20.998Z" fill="#F0AF13"/>
<path d="M65.8098 10.3975V22.5139H62.2849V14.7771L57.4398 20.6961H57.267L52.4219 14.7771V22.5139H49V10.3975H52.8724L57.4398 16.2138L62.0422 10.3975H65.8116H65.8098Z" fill="#F5F5F5"/>
<path d="M68.6562 16.4559C68.6562 12.3529 71.7656 10 76.5757 10C81.3859 10 84.5117 12.3548 84.5117 16.4559C84.5117 20.557 81.3859 22.9118 76.5757 22.9118C71.7656 22.9118 68.6562 20.557 68.6562 16.4559ZM80.9005 16.4559C80.9005 14.1708 79.2511 12.8734 76.5757 12.8734C73.9003 12.8734 72.251 14.1708 72.251 16.4559C72.251 18.741 73.9003 20.0384 76.5757 20.0384C79.2511 20.0384 80.9005 18.741 80.9005 16.4559Z" fill="#F5F5F5"/>
<path d="M97.6786 22.5139L94.4664 18.6895H90.8882V22.5139H87.3633V10.3975H95.8914C99.0007 10.3975 101.415 11.7645 101.415 14.5334C101.415 16.5583 100.13 17.8392 98.2192 18.3927L101.797 22.5121H97.6823L97.6786 22.5139ZM95.6284 16.1277C96.8972 16.1277 97.8165 15.7813 97.8165 14.6049C97.8165 13.4284 96.8953 13.0821 95.6284 13.0821H90.8698V16.1277H95.6284Z" fill="#F5F5F5"/>
<path d="M116.555 13.2195H111.501V22.5139H107.957V13.2195H102.938V10.3975H116.553V13.2195H116.555Z" fill="#F5F5F5"/>
<path d="M131.904 19.8128V22.5121H118.93V10.3975H131.713V13.0967H122.421V15.0868H130.08V17.6652H122.421V19.811H131.904V19.8128Z" fill="#F5F5F5"/>
<path d="M149.115 10.3975V22.5139H146.006L138.156 14.5517V22.5139H134.734V10.3975H138.485L145.693 17.8063V10.3975H149.115Z" fill="#F5F5F5"/>
<path d="M166.047 18.7227C166.047 21.2149 163.737 22.9118 159.326 22.9118C156.2 22.9118 153.578 22.0633 151.668 20.5405L153.527 18.3599C154.969 19.5711 156.965 20.2455 159.396 20.2455C161.48 20.2455 162.522 19.8643 162.522 19.069C162.522 18.2737 161.549 18.03 159.049 17.8229C155.436 17.5114 152.153 16.7161 152.153 14.015C152.153 11.3139 154.967 10 158.823 10C161.428 10 163.824 10.623 165.492 11.7995L163.703 13.9985C162.347 13.0474 160.715 12.6663 158.823 12.648C157.397 12.648 155.678 12.8734 155.678 13.7383C155.678 14.5519 157.085 14.6564 159.256 14.8286C163.234 15.1567 166.047 15.9355 166.047 18.7227Z" fill="#F5F5F5"/>
<path d="M181.712 19.8128V22.5121H168.738V10.3975H181.521V13.0967H172.23V15.0868H179.888V17.6652H172.23V19.811H181.712V19.8128Z" fill="#F5F5F5"/>
<path d="M198.92 10.3975V22.5139H195.811L187.961 14.5517V22.5139H184.539V10.3975H188.29L195.498 17.8063V10.3975H198.92Z" fill="#F5F5F5"/>
</svg>
